<svg width="79" height="97" viewBox="0 0 79 97" fill="none" xmlns="http://www.w3.org/2000/svg">
<path d="M0.246094 84.9277C0.246094 92.6914 4.10347 96.5488 11.7696 96.5488H48C55.6172 96.5488 59.4746 92.6426 59.4746 84.9277V77.75H66.5059C74.1719 77.75 78.0293 73.8438 78.0293 66.1289V34.3418C78.0293 30.1914 77.1993 27.5059 74.5625 24.8203L54.3965 4.3613C51.8575 1.7734 48.9766 0.845703 45.3145 0.845703H30.2754C22.6582 0.845703 18.8008 4.8008 18.8008 12.5156V19.6934H11.7696C4.15237 19.6934 0.246094 23.5996 0.246094 31.3145V84.9277ZM56.1543 45.1328L34.3282 23.0137C31.6914 20.2793 29.4942 19.6934 25.4903 19.6934H24.2207V12.6133C24.2207 8.6094 26.3692 6.3145 30.5684 6.3145H47.7071V26.5293C47.7071 30.8262 49.7578 32.7793 53.9571 32.7793H72.6094V66.0312C72.6094 70.084 70.461 72.3301 66.2617 72.3301H59.4746V54.5078C59.4746 49.9668 58.9375 48.0137 56.1543 45.1328ZM52.6387 25.7969V9.0977L71.0957 27.8477H54.6895C53.2246 27.8477 52.6387 27.2617 52.6387 25.7969ZM5.66597 84.8301V31.4121C5.66597 27.4082 7.86327 25.1133 12.0625 25.1133H25.295V47.7207C25.295 52.3105 27.6387 54.5566 32.1309 54.5566H54.0547V84.8301C54.0547 88.8828 51.9063 91.1289 47.7071 91.1289H12.0137C7.86327 91.1289 5.66597 88.8828 5.66597 84.8301ZM32.7168 49.4297C31.0567 49.4297 30.4219 48.7461 30.4219 47.1348V26.5293L52.9805 49.4297H32.7168Z" fill="black"/>
</svg>
