<svg width="58" height="73" viewBox="0 0 58 73" fill="none" xmlns="http://www.w3.org/2000/svg">
<path d="M29.1354 0.759827C27.3776 0.759827 26.1569 2.02932 26.1569 3.73832V55.5449L26.401 63.7481L15.5612 51.8828L5.40489 41.873C4.86779 41.3359 4.03769 41.043 3.25649 41.043C1.59629 41.043 0.37561 42.3125 0.37561 43.9727C0.37561 44.7539 0.66859 45.4863 1.30339 46.1211L26.8893 71.7559C27.5241 72.3906 28.3053 72.7813 29.1354 72.7813C29.9655 72.7813 30.7467 72.3906 31.3815 71.7559L56.9674 46.1211C57.6022 45.4863 57.8952 44.7539 57.8952 43.9727C57.8952 42.3125 56.6745 41.043 55.0143 41.043C54.1842 41.043 53.403 41.3359 52.8659 41.873L42.7096 51.8828L31.8698 63.6992L32.1139 55.5449V3.73832C32.1139 2.02932 30.8932 0.759827 29.1354 0.759827Z" fill="black"/>
</svg>
