<svg width="81" height="80" viewBox="0 0 81 80" fill="none" xmlns="http://www.w3.org/2000/svg">
<path d="M11.6465 62.0605H18.5801V67.7246C18.5801 75.3906 22.4864 79.2481 30.2012 79.2481H68.6289C76.3438 79.2481 80.25 75.3418 80.25 67.7246V29.0527C80.25 21.4355 76.3438 17.5781 68.6289 17.5781H61.6953V11.9141C61.6953 4.29692 57.7891 0.390625 50.0743 0.390625H11.6465C3.93167 0.390625 0.0253906 4.24802 0.0253906 11.9141V50.5371C0.0253906 58.2031 3.93167 62.0605 11.6465 62.0605ZM11.7442 56.6406C7.69137 56.6406 5.44527 54.4922 5.44527 50.293V12.1582C5.44527 7.95902 7.69137 5.81052 11.7442 5.81052H49.9766C53.9805 5.81052 56.2754 7.95902 56.2754 12.1582V17.5781H30.2012C22.4864 17.5781 18.5801 21.4355 18.5801 29.0527V56.6406H11.7442ZM30.2989 73.8281C26.2461 73.8281 24 71.6309 24 67.4317V29.3457C24 25.1465 26.2461 22.998 30.2989 22.998H68.5313C72.5352 22.998 74.8301 25.1465 74.8301 29.3457V67.4317C74.8301 71.6309 72.5352 73.8281 68.5313 73.8281H30.2989ZM34.5957 51.2207H46.6075V63.2324C46.6075 64.9414 47.7305 66.1133 49.3907 66.1133C51.0508 66.1133 52.2227 64.9414 52.2227 63.2324V51.2207H64.2832C65.9434 51.2207 67.1641 50.0488 67.1641 48.4375C67.1641 46.7285 65.9922 45.5566 64.2832 45.5566H52.2227V33.5449C52.2227 31.8359 51.0508 30.6641 49.3907 30.6641C47.7305 30.6641 46.6075 31.8359 46.6075 33.5449V45.5566H34.5957C32.8379 45.5566 31.7149 46.7285 31.7149 48.4375C31.7149 50.0488 32.8868 51.2207 34.5957 51.2207Z" fill="black"/>
</svg>
