<svg width="74" height="85" viewBox="0 0 74 85" fill="none" xmlns="http://www.w3.org/2000/svg">
<path d="M19.7236 84.8574H54.5869C59.8115 84.8574 63.376 81.3906 63.669 76.2148L66.4033 19.8672H71.4326C72.8486 19.8672 73.9717 18.6953 73.9717 17.2793C73.9717 15.8633 72.7998 14.7402 71.4326 14.7402H53.6592V8.6855C53.6592 3.3633 50.1924 0.0917969 44.4795 0.0917969H29.7334C24.0693 0.0917969 20.6025 3.3633 20.6025 8.6855V14.7402H2.87793C1.51074 14.7402 0.338867 15.9121 0.338867 17.2793C0.338867 18.6953 1.51074 19.8672 2.87793 19.8672H7.90719L10.6416 76.2637C10.9346 81.4395 14.499 84.8574 19.7236 84.8574ZM25.9736 9.0273C25.9736 6.6836 27.585 5.1699 30.0264 5.1699H44.1865C46.6768 5.1699 48.2881 6.6836 48.2881 9.0273V14.7402H25.9736V9.0273ZM20.1631 79.7793C17.8682 79.7793 16.0615 78.0215 15.9639 75.6777L13.2295 19.8672H60.9346L58.2979 75.6777C58.2002 78.0215 56.4424 79.7793 54.0986 79.7793H20.1631ZM25.7783 72.7969C27.0479 72.7969 27.9268 71.9668 27.8779 70.7461L26.6572 29.1445C26.6572 27.9238 25.7783 27.1426 24.5576 27.1426C23.2393 27.1426 22.4092 27.9238 22.4092 29.1445L23.6299 70.7949C23.6787 72.0156 24.5088 72.7969 25.7783 72.7969ZM37.1553 72.7969C38.4736 72.7969 39.3525 71.9668 39.3525 70.7461V29.1445C39.3525 27.9727 38.4736 27.1426 37.1553 27.1426C35.8857 27.1426 34.958 27.9727 34.958 29.1445V70.7461C34.958 71.9668 35.8857 72.7969 37.1553 72.7969ZM48.5322 72.7969C49.8018 72.7969 50.6318 72.0156 50.6807 70.7949L51.9014 29.1934C51.9014 27.9727 51.0713 27.1426 49.7529 27.1426C48.5322 27.1426 47.6533 27.9238 47.6045 29.1445L46.4326 70.7949C46.3838 71.9668 47.2139 72.7969 48.5322 72.7969Z" fill="black"/>
</svg>
