<svg width="58" height="73" viewBox="0 0 58 73" fill="none" xmlns="http://www.w3.org/2000/svg">
<path d="M29.1353 72.7813C30.8931 72.7813 32.1138 71.5117 32.1138 69.8027V17.9961L31.8697 9.84182L42.7095 21.6582L52.8658 31.668C53.4029 32.2051 54.1841 32.498 55.0142 32.498C56.6744 32.498 57.8951 31.2285 57.8951 29.5684C57.8951 28.7871 57.6021 28.0547 56.9673 27.4199L31.3814 1.78522C30.7466 1.15042 29.9654 0.759827 29.1353 0.759827C28.3052 0.759827 27.524 1.15042 26.8892 1.78522L1.30327 27.4199C0.668468 28.0547 0.375488 28.7871 0.375488 29.5684C0.375488 31.2285 1.59617 32.498 3.25637 32.498C4.03757 32.498 4.86767 32.2051 5.40477 31.668L15.5611 21.6582L26.4009 9.79302L26.1568 17.9961V69.8027C26.1568 71.5117 27.3775 72.7813 29.1353 72.7813Z" fill="black"/>
</svg>
